<?xml version="1.0" standalone="no"?>
<!DOCTYPE svg PUBLIC "-//W3C//DTD SVG 20010904//EN"
 "http://www.w3.org/TR/2001/REC-SVG-20010904/DTD/svg10.dtd">
<svg version="1.0" xmlns="http://www.w3.org/2000/svg"
 width="839.000000pt" height="297.000000pt" viewBox="0 0 839.000000 297.000000"
 preserveAspectRatio="xMidYMid meet">
<metadata>
Created by potrace 1.16, written by Peter Selinger 2001-2019
</metadata>
<g transform="translate(0.000000,297.000000) scale(0.100000,-0.100000)"
fill="#000000" stroke="none">
<path d="M3697 2293 c-4 -3 -7 -97 -7 -208 l0 -202 168 -5 c92 -3 221 -4 287
-2 66 2 135 4 153 4 l32 0 -2 208 -3 207 -158 3 c-123 2 -157 0 -155 -10 2
-10 41 -14 143 -18 l140 -5 0 -177 c0 -98 -3 -178 -7 -178 -5 0 -134 0 -288 0
l-280 0 0 180 0 180 138 0 c117 0 139 2 139 15 0 13 -23 15 -147 15 -81 0
-150 -3 -153 -7z"/>
<path d="M4016 2149 c-18 -50 -32 -149 -20 -136 9 9 35 139 29 145 -2 3 -7 -1
-9 -9z"/>
<path d="M3903 2110 c-24 -10 -43 -21 -43 -24 0 -6 47 -32 85 -46 41 -16 30 9
-12 27 l-38 15 38 19 c64 34 39 41 -30 9z"/>
<path d="M4050 2125 c0 -2 14 -11 30 -20 17 -9 30 -20 30 -24 0 -5 -13 -12
-30 -16 -16 -4 -30 -11 -30 -17 0 -6 10 -8 25 -4 86 22 97 45 32 70 -44 17
-57 19 -57 11z"/>
<path d="M3606 1849 c7 -12 801 -12 809 0 3 6 -158 9 -405 9 -245 0 -408 -3
-404 -9z"/>
<path d="M2715 1525 c-43 -42 -27 -77 53 -112 66 -29 72 -36 72 -84 0 -55 -44
-93 -122 -105 -64 -9 -88 -28 -88 -68 0 -42 24 -63 80 -71 79 -12 110 -25 125
-55 41 -79 -7 -160 -94 -160 -38 0 -106 26 -147 57 -46 35 -96 26 -113 -20
-28 -76 113 -177 248 -177 156 0 261 98 261 244 0 71 -14 110 -56 155 -29 31
-29 32 -5 62 58 76 71 163 33 236 -25 47 -67 82 -130 106 -59 23 -89 21 -117
-8z"/>
<path d="M1655 1519 c-11 -7 -23 -17 -27 -23 -4 -6 -8 -169 -8 -362 0 -381 -2
-368 56 -380 21 -4 37 0 54 14 l25 20 3 301 3 301 98 0 c197 0 276 -62 288
-225 7 -88 -6 -132 -58 -201 -46 -60 -50 -94 -13 -123 36 -29 57 -26 98 10 81
71 122 189 113 326 -6 109 -45 192 -119 257 -79 69 -147 88 -338 93 -109 2
-161 0 -175 -8z"/>
<path d="M3198 1509 c-32 -24 -36 -59 -14 -105 8 -16 28 -60 44 -99 40 -95
161 -372 205 -467 29 -63 41 -79 63 -84 53 -13 73 11 141 161 34 77 75 169 91
205 57 126 59 136 36 167 -23 30 -62 40 -92 24 -11 -6 -35 -48 -55 -93 -20
-46 -50 -114 -67 -152 l-31 -68 -19 36 c-10 20 -30 67 -45 104 -15 37 -30 72
-35 77 -4 6 -19 39 -33 75 -60 150 -94 216 -121 228 -34 15 -36 15 -68 -9z"/>
<path d="M3757 1510 c-51 -40 -26 -120 38 -120 24 0 39 7 54 26 25 32 26 52 3
81 -26 33 -63 38 -95 13z"/>
<path d="M4290 1522 c-8 -2 -23 -11 -32 -20 -17 -14 -18 -44 -18 -365 0 -421
-13 -387 147 -387 97 0 106 2 128 25 31 30 32 56 3 90 -19 22 -32 26 -80 28
l-58 2 0 288 c0 169 -4 296 -10 307 -11 20 -58 39 -80 32z"/>
<path d="M5219 1515 c-15 -8 -33 -31 -42 -52 -8 -21 -52 -114 -97 -208 -175
-362 -200 -417 -200 -439 0 -47 69 -82 109 -57 8 6 34 47 56 93 l42 83 207 5
c203 5 208 5 227 29 10 13 19 30 19 38 0 8 -52 124 -116 258 -130 272 -141
285 -205 250z m91 -337 c28 -57 50 -106 50 -110 0 -11 -198 -10 -204 1 -5 8
91 211 100 211 3 0 27 -46 54 -102z"/>
<path d="M5850 1514 c-14 -10 -28 -23 -32 -28 -4 -6 -8 -163 -8 -349 l0 -338
25 -24 c29 -30 64 -32 96 -6 23 19 24 24 24 163 0 78 4 146 9 149 4 4 52 6
105 5 108 -2 166 -22 182 -63 6 -16 5 -47 -3 -88 -12 -71 -6 -89 40 -106 88
-34 150 149 87 258 -14 23 -29 43 -33 43 -4 1 -18 10 -31 21 l-24 20 19 27
c52 72 61 154 22 224 -18 33 -37 50 -83 73 -58 29 -66 30 -215 33 -135 3 -158
1 -180 -14z m341 -143 c50 -50 32 -125 -36 -151 -30 -12 -192 -14 -198 -2 -2
4 -2 46 1 95 l5 87 99 0 c97 0 100 -1 129 -29z"/>
<path d="M2505 1446 c-35 -53 10 -125 69 -110 31 7 59 54 49 81 -20 57 -89 74
-118 29z"/>
<path d="M1862 867 c-28 -30 -28 -71 0 -97 29 -27 69 -25 96 3 28 30 28 68 -1
95 -30 28 -68 28 -95 -1z"/>
<path d="M4641 864 c-24 -30 -26 -46 -10 -77 15 -29 28 -37 60 -37 35 0 69 34
69 70 0 65 -79 94 -119 44z"/>
<path d="M5522 883 c-23 -9 -43 -60 -33 -85 27 -71 141 -53 141 21 0 49 -59
84 -108 64z"/>
<path d="M6056 859 c-30 -35 -28 -63 8 -91 30 -25 63 -22 91 7 30 30 31 54 4
89 -29 37 -70 35 -103 -5z"/>
<path d="M3872 864 c-17 -12 -22 -25 -22 -59 0 -50 24 -75 72 -75 34 0 78 42
78 76 0 57 -78 93 -128 58z"/>
</g>
</svg>
