<!DOCTYPE svg PUBLIC "-//W3C//DTD SVG 1.1//EN" "http://www.w3.org/Graphics/SVG/1.1/DTD/svg11.dtd">
<!-- Uploaded to: SVG Find, www.svgrepo.com, Transformed by: SVG Find Mixer Tools -->
<svg fill="#ffffff" width="800px" height="800px" version="1.1" viewBox="144 144 512 512" xmlns="http://www.w3.org/2000/svg" stroke="#ffffff">
<g id="SVGRepo_bgCarrier" stroke-width="0"/>
<g id="SVGRepo_tracerCarrier" stroke-linecap="round" stroke-linejoin="round"/>
<g id="SVGRepo_iconCarrier"> <path d="m575.79 513.31c13.473-26.641 21.117-56.715 21.117-88.559 0-55.582-23.371-108.14-64.301-145.46 7.6133-12.852 12.836-25.012 12.836-35.445 0-36.121-29.387-65.504-65.504-65.504-30.867 0-56.742 21.48-63.641 50.258-5.4219-0.44141-10.863-0.75-16.293-0.75-10.246 0-20.305 0.79297-30.133 2.3086-0.16016 0.019531-0.3125 0.050781-0.47266 0.082031-94.094 14.742-166.31 96.352-166.31 194.52 0 7.0625 0.39062 14.035 1.1211 20.906 0.019531 0.21094 0.046875 0.41797 0.082031 0.62891 10.766 98.473 94.414 175.37 195.71 175.37 75.832 0 141.75-43.117 174.63-106.09 0.48047-0.69531 0.88281-1.4453 1.1523-2.2578zm-95.852-317.24c26.344 0 47.773 21.434 47.773 47.773 0 8.4062-6.6094 20.93-15.172 34.102-0.85156 1.3164-1.7266 2.6406-2.6211 3.9727-0.59766 0.89062-1.1914 1.7773-1.8008 2.668-1.1992 1.7461-2.418 3.5078-3.6562 5.2656-0.53906 0.76563-1.0781 1.5273-1.6211 2.293-1.3945 1.957-2.793 3.9141-4.1992 5.8672-0.23828 0.32422-0.46875 0.64453-0.69922 0.96484-1.5977 2.207-3.1992 4.4023-4.7852 6.582-4.7852 6.5586-9.4141 12.91-13.52 18.898-2.5312-3.8047-5.2852-7.7578-8.1445-11.797-2.0312-2.8672-4.1016-5.7773-6.2188-8.7383-14.75-20.621-33.102-46.285-33.102-60.07-0.007813-26.352 21.426-47.781 47.766-47.781zm-65.422 50.086c0.015625 0.24609 0.066406 0.50781 0.09375 0.76172 0.050781 0.57031 0.12891 1.1523 0.21094 1.7344 0.09375 0.67188 0.19531 1.3477 0.32422 2.0312 0.11328 0.59766 0.24609 1.2031 0.38672 1.8086 0.16016 0.6875 0.32812 1.3789 0.51953 2.0781 0.16797 0.62109 0.35547 1.2539 0.55078 1.8867 0.21484 0.69922 0.44531 1.4102 0.69531 2.1172 0.22656 0.64844 0.45703 1.3008 0.71094 1.9531 0.27344 0.71484 0.55469 1.4336 0.85156 2.1602 0.27344 0.66797 0.55469 1.3359 0.84766 2.0117 0.32031 0.73047 0.65234 1.4609 0.99609 2.1953 0.32031 0.6875 0.64453 1.3711 0.98828 2.0664 0.36328 0.74219 0.74219 1.4805 1.125 2.2266 0.35938 0.69922 0.71875 1.3984 1.1016 2.1016 0.40625 0.75391 0.82813 1.5117 1.25 2.2734 0.39453 0.71094 0.79297 1.418 1.2031 2.1328 0.44141 0.76953 0.90625 1.543 1.3633 2.3203 0.42578 0.71484 0.84375 1.4258 1.2852 2.1445 0.48438 0.79297 0.98047 1.582 1.4805 2.3789 0.44531 0.71094 0.88281 1.418 1.3398 2.1328 0.51953 0.8125 1.0547 1.6367 1.5898 2.4531 0.45703 0.69922 0.90625 1.3945 1.3672 2.0938 0.57422 0.86719 1.168 1.7422 1.7578 2.6172 0.4375 0.64844 0.86719 1.2969 1.3125 1.9492 0.66406 0.97266 1.332 1.9414 2.0039 2.9141 0.38672 0.55469 0.76172 1.1094 1.1523 1.6641 0.85938 1.2344 1.7266 2.4688 2.6016 3.707 0.19922 0.28125 0.39453 0.55859 0.58984 0.84375 2.1953 3.1094 4.4219 6.2148 6.6328 9.3164 8.1523 11.402 15.855 22.168 20.934 31.16 1.5586 2.7539 4.4727 4.4727 7.6406 4.5039h0.078125c0.41797 0 0.8125-0.10156 1.2188-0.16016 0.33984-0.046875 0.68359-0.046875 1.0117-0.13281 2.2422-0.58203 4.207-2.0195 5.4102-4.0703 4.9961-8.4844 12.457-18.703 20.348-29.523 2.6016-3.5664 5.207-7.1445 7.7773-10.73 0.011719-0.015625 0.019531-0.03125 0.03125-0.046875 2.5742-3.582 5.0938-7.1602 7.5312-10.723 0.027343-0.035156 0.050781-0.078124 0.078125-0.11328 35.883 33.828 56.273 80.789 56.273 130.36 0 23.855-4.7227 46.617-13.223 67.449-6.2188-5.8711-14.672-11.645-23.762-17.844-8.668-5.9102-19.457-13.27-21.996-17.402-3.2734-5.3203-6.7812-14.812-10.168-23.988-8.5547-23.156-17.406-47.082-35.215-43.539-10.43 2.0859-20.363 14.504-31.863 28.875-6.6875 8.3594-20.609 25.758-25.426 25.816-26.02-12.527-20.961-29.41-11.641-50.18 2.4609-5.4844 4.2422-9.4531 4.4883-13.301 3.3945-52.93-6.7188-67.316-16.492-81.23-7.25-10.312-14.113-20.121-14-52.672 6.6094-0.74219 13.316-1.1602 20.121-1.1602 4.832-0.003906 9.6875 0.19141 14.512 0.57812zm-170.83 91.168c0.55078 0.21484 1.1328 0.375 1.7344 0.47656 1.8711 0.32031 2.6797 0.69922 2.6992 0.65234 0.28125 0.58984 0.61328 2.3867 0.85938 3.707 1.0547 5.7148 2.6484 14.352 11.773 23.66 2.1016 2.1484 4.1328 9.9648 5.6172 15.676 3.043 11.715 6.1914 23.84 15.676 29.02 3.25 1.7773 8.6406 3.3984 15.887 1.0273 2.375-0.77734 4.293-2.5156 5.3125-4.7539 1.5391 1.2227 3.2969 2.7148 4.8633 4.0469 2.5664 2.1797 5.4648 4.6367 8.7656 7.2344 2.7266 3.3398 5.7383 16.457 2.375 19.695-7.3828 7.1133-3.5898 18.602 0.80859 31.906 1.2578 3.8086 3.1211 9.4531 3.9141 13.352-2.3477-0.78125-6.0625-2.3398-11.68-5.4492-20.902-11.566-33.344-14.277-41.59-9.0586-3.8984 2.4688-5.8086 5.9961-6.7031 9.5859-4.3477-4.25-10.527-10.594-19.293-19.969-0.10938-0.11719-15.039-12.023-23.16-18.023-0.43359-5.0703-0.70312-10.18-0.70312-15.355-0.015626-31.738 8.3164-61.543 22.844-87.43zm93.309 255.13c6.2812-5.1016 11.375-12.41 16.375-19.594 7.6953-11.07 15.648-22.512 27.246-25.547 9.9922-2.6016 31.598 3.6328 50.488 18.59 6.207 4.9141 46.012 5.6719 71.742 5.4375-29.137 20.5-64.594 32.586-102.84 32.586-22.176 0-43.402-4.0781-63.012-11.473zm188.55-40.023c-0.91016 0.097656-1.8086 0.28906-2.6562 0.66406-10.75 1.832-71.488 0.375-81.879-1.9414-21.66-16.738-48.164-25.355-64.883-20.984-17.938 4.6875-28.234 19.504-37.328 32.578-6.5586 9.4375-12.754 18.352-19.203 18.734-1.4766 0.085937-2.8164 0.55859-4 1.2695-44.793-24.023-78.203-66.539-90.047-117.27 3.0742 2.375 5.5938 4.3438 6.4883 5.0859 23.898 25.535 32.031 33.004 38.566 33.004 1.4648 0 2.8477-0.375 4.3086-1.0078 6.9297-2.9883 6.4531-10.59 6.1953-14.676-0.066407-1.1055-0.17969-2.8672-0.125-4.1641 2.4883 0.22656 8.875 1.707 22.707 9.3555 12.324 6.8164 24.883 12.168 33.234 5.2422 8.8359-7.3242 4.5195-20.391-0.046875-34.223-1.4922-4.5078-3.8906-11.773-4.0664-14.918 4.0352-4.6836 5.9492-11.273 5.543-19.191-0.45703-8.8984-4.2266-20.922-10.309-25.684-3.1992-2.5039-6-4.8906-8.4727-6.9883-8.0859-6.8633-14.473-12.277-22.23-9.9688-3.8047 1.1367-6.2812 3.8008-7.9102 6.5352-2.3633-3.2227-4.6133-11.879-5.9023-16.84-2.418-9.3086-4.6992-18.105-10.117-23.633-5.3242-5.4336-6.1367-9.8203-6.9961-14.461-1.0273-5.5664-2.5234-13.609-12.82-17.289 25.5-36.105 63.965-62.402 108.59-72.031 0.33984 35.875 8.8789 48.148 17.188 59.973 8.3867 11.934 16.301 23.199 13.324 69.707-0.19922 1.1562-1.8164 4.75-2.9922 7.3789-7.0391 15.68-23.52 52.406 20.121 73.414 16.156 7.793 31.816-11.789 46.961-30.719 6.2461-7.8086 16.57-20.707 21.066-22.43 4.6953 2.8281 11.715 21.828 15.535 32.16 3.8594 10.445 7.5039 20.316 11.699 27.133 4.5273 7.3633 14.996 14.496 27.113 22.766 8.0234 5.4766 22.285 15.211 25.633 20.465-8.5742 15.906-19.496 30.367-32.285 42.949zm-45.609-278.52c16.262 0 29.492-13.227 29.492-29.492 0-16.262-13.227-29.488-29.492-29.488-16.262 0-29.492 13.227-29.492 29.488s13.234 29.492 29.492 29.492zm0-41.254c6.4844 0 11.758 5.2734 11.758 11.758s-5.2734 11.758-11.758 11.758-11.758-5.2734-11.758-11.758c0-6.4805 5.2773-11.758 11.758-11.758z"/> </g>
</svg>